<svg width="2759" height="3477" xmlns="http://www.w3.org/2000/svg" xmlns:xlink="http://www.w3.org/1999/xlink" xml:space="preserve" overflow="hidden"><g transform="translate(-989 1185)"><path d="M2261.78 1945.84 2391.66 1945.84 2391.66 1956.16 2261.78 1956.16ZM2266.94 1966.47 2236 1951 2266.94 1935.53ZM2386.51 1935.53 2417.44 1951 2386.51 1966.47Z" fill="#00B050"/><path d="M2261.78 1741.84 2391.66 1741.84 2391.66 1752.16 2261.78 1752.16ZM2266.94 1762.47 2236 1747 2266.94 1731.53ZM2386.51 1731.53 2417.44 1747 2386.51 1762.47Z" fill="#00B050"/><path d="M2261.78 1536.84 2391.66 1536.84 2391.66 1547.16 2261.78 1547.16ZM2266.94 1557.47 2236 1542 2266.94 1526.53ZM2386.51 1526.53 2417.44 1542 2386.51 1557.47Z" fill="#00B050"/><path d="M6.875-9.16553e-05 6.87562 46.8358-6.87438 46.836-6.875 9.16553e-05ZM20.6255 39.9606 0.00108268 81.2109-20.6245 39.9612Z" fill="#00A2FF" transform="matrix(-1 0 0 1 1952 1102)"/><rect x="1121" y="923" width="471" height="179" stroke="#000000" stroke-width="10.3125" stroke-linejoin="round" stroke-miterlimit="10" fill="#F2F2F2"/><text font-family="Arial,Arial_MSFontService,sans-serif" font-weight="700" font-size="50" transform="matrix(1 0 0 1 1208.4 1031)">Ifmap SRAM</text><rect x="1717" y="923" width="471" height="179" stroke="#000000" stroke-width="10.3125" stroke-linejoin="round" stroke-miterlimit="10" fill="#F2F2F2"/><text font-family="Arial,Arial_MSFontService,sans-serif" font-weight="700" font-size="50" transform="matrix(1 0 0 1 1787.21 1031)">Weight SRAM</text><rect x="2313" y="923" width="471" height="179" stroke="#000000" stroke-width="10.3125" stroke-linejoin="round" stroke-miterlimit="10" fill="#F2F2F2"/><text font-family="Arial,Arial_MSFontService,sans-serif" font-weight="700" font-size="50" transform="matrix(1 0 0 1 2367.45 1031)">P. Sums SRAM</text><path d="M1350.12 888.909 1350.12 769C1350.12 765.203 1353.2 762.125 1357 762.125L1749.74 762.125 1749.74 775.875 1357 775.875 1363.88 769 1363.88 888.909ZM1377.62 882.034 1357 923.284 1336.38 882.034ZM1742.86 748.375 1784.11 769 1742.86 789.625Z" fill="#7F7F7F"/><path d="M1958.26 859.295 1958.6 888.728 1944.85 888.883 1944.51 859.45ZM1930.84 866.48 1951 825 1972.09 866.014ZM1972.27 881.698 1952.11 923.178 1931.02 882.164Z" fill="#7F7F7F"/><path d="M1752.16 1333 1752.16 1436.04 1741.84 1436.04 1741.84 1333ZM1762.47 1430.88 1747 1461.82 1731.53 1430.88Z" fill="#0070C0"/><path d="M1956.16 1333 1956.16 1436.04 1945.84 1436.04 1945.84 1333ZM1966.47 1430.88 1951 1461.82 1935.53 1430.88Z" fill="#0070C0"/><path d="M2161.16 1333 2161.16 1436.04 2150.84 1436.04 2150.84 1333ZM2171.47 1430.88 2156 1461.82 2140.53 1430.88Z" fill="#0070C0"/><path d="M1416 1536.84 1640.89 1536.84 1640.89 1547.16 1416 1547.16ZM1635.74 1526.53 1666.67 1542 1635.74 1557.47Z" fill="#FF0000"/><path d="M1416 1741.84 1640.89 1741.84 1640.89 1752.16 1416 1752.16ZM1635.73 1731.53 1666.67 1747 1635.73 1762.47Z" fill="#FF0000"/><path d="M1416 1945.84 1640.89 1945.84 1640.89 1956.16 1416 1956.16ZM1635.73 1935.53 1666.67 1951 1635.73 1966.47Z" fill="#FF0000"/><rect x="1615" y="1409" width="675" height="678" stroke="#000000" stroke-width="10.3125" stroke-linejoin="round" stroke-miterlimit="10" fill="#FFF0C5" fill-opacity="0.298039"/><rect x="1615" y="1183" width="675" height="150" stroke="#000000" stroke-width="10.3125" stroke-linejoin="round" stroke-miterlimit="10" fill="#D5D5FF" fill-opacity="0.298039"/><text font-family="Arial,Arial_MSFontService,sans-serif" font-weight="700" font-size="55" transform="matrix(1 -2.44929e-16 2.44929e-16 1 1753.69 1278)">Weight Fetcher</text><rect x="1172" y="1409" width="369" height="678" stroke="#000000" stroke-width="10.3125" stroke-linejoin="round" stroke-miterlimit="10" fill="#FFAFAF" fill-opacity="0.298039"/><rect x="1230" y="1462" width="250" height="161" stroke="#000000" stroke-width="10.3125" stroke-linejoin="round" stroke-miterlimit="10" fill="#EEBEBE"/><text font-family="Arial,Arial_MSFontService,sans-serif" font-weight="700" font-size="50" transform="matrix(1 0 0 1 1295.9 1531)">Feed </text><text font-family="Arial,Arial_MSFontService,sans-serif" font-weight="700" font-size="50" transform="matrix(1 0 0 1 1295.9 1592)">Lane</text><rect x="1230" y="1666" width="250" height="161" stroke="#000000" stroke-width="10.3125" stroke-linejoin="round" stroke-miterlimit="10" fill="#EEBEBE"/><text font-family="Arial,Arial_MSFontService,sans-serif" font-weight="700" font-size="50" transform="matrix(1 0 0 1 1295.9 1735)">Feed </text><text font-family="Arial,Arial_MSFontService,sans-serif" font-weight="700" font-size="50" transform="matrix(1 0 0 1 1295.9 1796)">Lane</text><rect x="1230" y="1871" width="250" height="160" stroke="#000000" stroke-width="10.3125" stroke-linejoin="round" stroke-miterlimit="10" fill="#EEBEBE"/><text font-family="Arial,Arial_MSFontService,sans-serif" font-weight="700" font-size="50" transform="matrix(1 0 0 1 1295.91 1939)">Feed </text><text font-family="Arial,Arial_MSFontService,sans-serif" font-weight="700" font-size="50" transform="matrix(1 0 0 1 1295.91 2000)">Lane</text><rect x="1667" y="1462" width="160" height="161" stroke="#000000" stroke-width="10.3125" stroke-linejoin="round" stroke-miterlimit="10" fill="#FDF3AD"/><text font-family="Arial,Arial_MSFontService,sans-serif" font-weight="700" font-size="50" transform="matrix(1 0 0 1 1713.39 1561)">PE</text><rect x="1871" y="1462" width="161" height="161" stroke="#000000" stroke-width="10.3125" stroke-linejoin="round" stroke-miterlimit="10" fill="#FDF3AD"/><text font-family="Arial,Arial_MSFontService,sans-serif" font-weight="700" font-size="50" transform="matrix(1 0 0 1 1917.59 1561)">PE</text><rect x="2075" y="1462" width="161" height="161" stroke="#000000" stroke-width="10.3125" stroke-linejoin="round" stroke-miterlimit="10" fill="#FDF3AD"/><text font-family="Arial,Arial_MSFontService,sans-serif" font-weight="700" font-size="50" transform="matrix(1 0 0 1 2121.78 1561)">PE</text><rect x="1667" y="1666" width="160" height="161" stroke="#000000" stroke-width="10.3125" stroke-linejoin="round" stroke-miterlimit="10" fill="#FDF3AD"/><text font-family="Arial,Arial_MSFontService,sans-serif" font-weight="700" font-size="50" transform="matrix(1 0 0 1 1713.38 1765)">PE</text><rect x="1871" y="1666" width="161" height="161" stroke="#000000" stroke-width="10.3125" stroke-linejoin="round" stroke-miterlimit="10" fill="#FDF3AD"/><text font-family="Arial,Arial_MSFontService,sans-serif" font-weight="700" font-size="50" transform="matrix(1 0 0 1 1917.58 1765)">PE</text><rect x="2075" y="1666" width="161" height="161" stroke="#000000" stroke-width="10.3125" stroke-linejoin="round" stroke-miterlimit="10" fill="#FDF3AD"/><text font-family="Arial,Arial_MSFontService,sans-serif" font-weight="700" font-size="50" transform="matrix(1 0 0 1 2121.78 1765)">PE</text><rect x="1667" y="1871" width="160" height="160" stroke="#000000" stroke-width="10.3125" stroke-linejoin="round" stroke-miterlimit="10" fill="#FDF3AD"/><text font-family="Arial,Arial_MSFontService,sans-serif" font-weight="700" font-size="50" transform="matrix(1 0 0 1 1713.38 1970)">PE</text><rect x="1871" y="1871" width="161" height="160" stroke="#000000" stroke-width="10.3125" stroke-linejoin="round" stroke-miterlimit="10" fill="#FDF3AD"/><text font-family="Arial,Arial_MSFontService,sans-serif" font-weight="700" font-size="50" transform="matrix(1 0 0 1 1917.58 1970)">PE</text><rect x="2075" y="1871" width="161" height="160" stroke="#000000" stroke-width="10.3125" stroke-linejoin="round" stroke-miterlimit="10" fill="#FDF3AD"/><text font-family="Arial,Arial_MSFontService,sans-serif" font-weight="700" font-size="50" transform="matrix(1 0 0 1 2121.78 1970)">PE</text><path d="M1.41768e-05-1.71875 20.8369-1.71858 20.8368 1.71892-1.41768e-05 1.71875ZM16.2536-13.7499 43.7535 0.000360892 16.2534 13.7501Z" fill="#404040" transform="matrix(1 0 0 -1 1827.5 1542.5)"/><path d="M1.71875-4.253e-05 1.71927 20.8372-1.71823 20.8372-1.71875 4.253e-05ZM13.7504 16.2535 0.00108268 43.7539-13.7496 16.2542Z" fill="#404040" transform="matrix(-1 0 0 1 1747.5 1623.5)"/><path d="M1749.22 1827.5 1749.22 1848.34 1745.78 1848.34 1745.78 1827.5ZM1761.25 1843.75 1747.5 1871.25 1733.75 1843.75Z" fill="#404040"/><path d="M1.41768e-05-1.71875 20.8369-1.71858 20.8368 1.71892-1.41768e-05 1.71875ZM16.2536-13.7499 43.7535 0.000360892 16.2534 13.7501Z" fill="#404040" transform="matrix(1 0 0 -1 1827.5 1747.5)"/><path d="M1.41768e-05-1.71875 20.8369-1.71858 20.8368 1.71892-1.41768e-05 1.71875ZM16.2536-13.7499 43.7535 0.000360892 16.2534 13.7501Z" fill="#404040" transform="matrix(1 0 0 -1 1827.5 1951.5)"/><path d="M2032.5 1540.78 2053.34 1540.78 2053.34 1544.22 2032.5 1544.22ZM2048.75 1528.75 2076.25 1542.5 2048.75 1556.25Z" fill="#404040"/><path d="M2032.5 1745.78 2053.34 1745.78 2053.34 1749.22 2032.5 1749.22ZM2048.75 1733.75 2076.25 1747.5 2048.75 1761.25Z" fill="#404040"/><path d="M2032.5 1949.78 2053.34 1949.78 2053.34 1953.22 2032.5 1953.22ZM2048.75 1937.75 2076.25 1951.5 2048.75 1965.25Z" fill="#404040"/><path d="M1.71875-4.253e-05 1.71927 20.8372-1.71823 20.8372-1.71875 4.253e-05ZM13.7504 16.2535 0.00108268 43.7539-13.7496 16.2542Z" fill="#404040" transform="matrix(-1 0 0 1 1951.5 1623.5)"/><path d="M1.71875-4.253e-05 1.71927 20.8372-1.71823 20.8372-1.71875 4.253e-05ZM13.7504 16.2535 0.00108268 43.7539-13.7496 16.2542Z" fill="#404040" transform="matrix(-1 0 0 1 2156.5 1623.5)"/><path d="M1953.22 1827.5 1953.22 1848.34 1949.78 1848.34 1949.78 1827.5ZM1965.25 1843.75 1951.5 1871.25 1937.75 1843.75Z" fill="#404040"/><path d="M2158.22 1827.5 2158.22 1848.34 2154.78 1848.34 2154.78 1827.5ZM2170.25 1843.75 2156.5 1871.25 2142.75 1843.75Z" fill="#404040"/><rect x="2417" y="1462" width="262" height="572" stroke="#000000" stroke-width="10.3125" stroke-linejoin="round" stroke-miterlimit="10" fill="#92D050" fill-opacity="0.298039"/><text font-family="Arial,Arial_MSFontService,sans-serif" font-weight="700" font-size="55" transform="matrix(-1.83697e-16 -1 1 -1.83697e-16 2535.21 1914)">Partial Sums </text><text font-family="Arial,Arial_MSFontService,sans-serif" font-weight="700" font-size="55" transform="matrix(-1.83697e-16 -1 1 -1.83697e-16 2601.21 1861)">Manager</text><path d="M6.87507 34.375 6.87565 325.573-6.87435 325.573-6.87493 34.375ZM-20.6249 41.25 0 0 20.6251 41.25ZM20.6256 318.698 0.000721785 359.948-20.6244 318.698Z" fill="#00B050" transform="matrix(1 0 0 -1 2548 1461.95)"/><path d="M1363.88 1102 1363.88 1374.13 1350.13 1374.13 1350.13 1102ZM1377.63 1367.26 1357 1408.51 1336.38 1367.26Z" fill="#C00000"/><rect x="1784" y="713" width="335" height="112" stroke="#000000" stroke-width="10.3125" stroke-linejoin="round" stroke-miterlimit="10" fill="#FFFFFF"/><text font-family="Arial,Arial_MSFontService,sans-serif" font-weight="700" font-size="50" transform="matrix(1 0 0 1 1856.57 788)">AXI Intf.</text><path d="M34.375-6.875 154.284-6.875C158.081-6.875 161.159-3.79696 161.159 0L161.159 394.954 147.409 394.954 147.409 0 154.284 6.875 34.375 6.875ZM41.25 20.625 0 0 41.25-20.625ZM174.909 388.079 154.284 429.329 133.659 388.079Z" fill="#7F7F7F" transform="matrix(-1.83697e-16 -1 -1 1.83697e-16 2548.33 923.284)"/><text font-family="Arial,Arial_MSFontService,sans-serif" font-weight="700" font-size="64" transform="matrix(-1.83697e-16 -1 1 -1.83697e-16 1126.77 1931)">Data Feeder</text><text font-family="Arial,Arial_MSFontService,sans-serif" font-weight="700" font-size="50" transform="matrix(1 0 0 1 1782.09 2158)">Systolic Array</text><text font-family="Arial,Arial_MSFontService,sans-serif" font-weight="700" font-size="50" transform="matrix(1 0 0 1 1894.08 2219)">(Y,X)</text><path d="M3037 1266C3037 1227.89 3068.12 1197 3106.5 1197 3144.88 1197 3176 1227.89 3176 1266 3176 1304.11 3144.88 1335 3106.5 1335 3068.12 1335 3037 1304.11 3037 1266Z" stroke="#000000" stroke-width="10.3125" stroke-miterlimit="8" fill="#FFFFFF" fill-rule="evenodd"/><path d="M3058 1217 3156.12 1315.12" stroke="#000000" stroke-width="10.3125" stroke-miterlimit="8" fill="none" fill-rule="evenodd"/><path d="M0 0 98.1209 98.1209" stroke="#000000" stroke-width="10.3125" stroke-miterlimit="8" fill="none" fill-rule="evenodd" transform="matrix(-1 0 0 1 3156.12 1217)"/><path d="M3420.5 1079C3458.88 1079 3490 1110.12 3490 1148.5 3490 1186.88 3458.88 1218 3420.5 1218 3382.12 1218 3351 1186.88 3351 1148.5 3351 1110.12 3382.12 1079 3420.5 1079Z" stroke="#000000" stroke-width="10.3125" stroke-miterlimit="8" fill="#FFFFFF" fill-rule="evenodd"/><path d="M0 0 138.764 0.000360892" stroke="#000000" stroke-width="10.3125" stroke-miterlimit="8" fill="none" fill-rule="evenodd" transform="matrix(-1 0 0 1 3489.76 1148)"/><path d="M0 0 0.000360892 138.764" stroke="#000000" stroke-width="10.3125" stroke-miterlimit="8" fill="none" fill-rule="evenodd" transform="matrix(1 0 0 -1 3420 1217.76)"/><rect x="3406.5" y="941.5" width="28.9998" height="109" stroke="#000000" stroke-width="4.58333" stroke-miterlimit="8"/><path d="M0-3.4375 123.77-3.4375 123.77 156.273 78.2032 156.273 78.2032 149.398 120.332 149.398 116.895 152.835 116.895 0 120.332 3.4375 0 3.4375ZM82.7865 166.585 55.2865 152.835 82.7865 139.085Z" transform="matrix(-1 1.22465e-16 1.22465e-16 1 3406.79 996.5)"/><path d="M3110.94 833.5 3110.94 1174.09 3104.06 1174.09 3104.06 833.5ZM3121.25 1169.5 3107.5 1197 3093.75 1169.5Z"/><path d="M2854.5 1263.06 3014.61 1263.06 3014.61 1269.94 2854.5 1269.94ZM3010.03 1252.75 3037.53 1266.5 3010.03 1280.25Z"/><path d="M2971.5 1266.5C2971.5 1261.53 2975.75 1257.5 2981 1257.5 2986.25 1257.5 2990.5 1261.53 2990.5 1266.5 2990.5 1271.47 2986.25 1275.5 2981 1275.5 2975.75 1275.5 2971.5 1271.47 2971.5 1266.5Z" stroke="#000000" stroke-width="4.58333" stroke-miterlimit="8" fill-rule="evenodd"/><path d="M3098.5 1148.5C3098.5 1143.53 3102.53 1139.5 3107.5 1139.5 3112.47 1139.5 3116.5 1143.53 3116.5 1148.5 3116.5 1153.47 3112.47 1157.5 3107.5 1157.5 3102.53 1157.5 3098.5 1153.47 3098.5 1148.5Z" stroke="#000000" stroke-width="4.58333" stroke-miterlimit="8" fill-rule="evenodd"/><path d="M0-3.4375 112.983-3.4375 112.983 507.25 106.108 507.25 106.108 0 109.546 3.4375 0 3.4375ZM123.296 502.667 109.546 530.167 95.7956 502.667Z" transform="matrix(1.83697e-16 1 1 -1.83697e-16 2980.5 1275.5)"/><path d="M3490.79 1145.9 3555.83 1145.9 3552.39 1149.34 3552.39 996.5 3555.83 999.938 3458.42 999.938 3458.42 993.063 3559.27 993.063 3559.27 1152.77 3490.79 1152.77ZM3463 1010.25 3435.5 996.5 3463 982.75Z"/><rect x="3511.5" y="1330.5" width="28.0002" height="110" stroke="#000000" stroke-width="4.58333" stroke-miterlimit="8"/><path d="M3539.5 1382.06 3657.02 1382.06 3657.02 1388.94 3539.5 1388.94ZM3652.44 1371.75 3679.94 1385.5 3652.44 1399.25Z"/><path d="M3116.5 1145.06 3233.93 1145.06 3233.93 1421.92 3227.05 1421.92 3227.05 1148.5 3230.49 1151.94 3116.5 1151.94ZM3244.24 1417.34 3230.49 1444.84 3216.74 1417.34Z"/><rect x="3175.5" y="1444.5" width="110" height="28.0002" stroke="#000000" stroke-width="4.58333" stroke-miterlimit="8"/><path d="M3233.94 1472.5 3233.94 1577.18 3227.06 1577.18 3227.06 1472.5ZM3244.25 1572.6 3230.5 1600.1 3216.75 1572.6Z"/><path d="M0-3.4375 247.785-3.4375 247.785 25.3292 240.91 25.3292 240.91 0 244.347 3.4375 0 3.4375ZM258.097 20.7459 244.347 48.2459 230.597 20.7459Z" transform="matrix(1 0 0 -1 3176.5 1266.75)"/><rect x="2938" y="908" width="662" height="603" stroke="#928104" stroke-width="10.3125" stroke-linejoin="round" stroke-miterlimit="10" stroke-dasharray="41.25 30.9375" fill="none"/><text font-family="Arial,Arial_MSFontService,sans-serif" font-weight="700" font-size="73" transform="matrix(1 0 0 1 2963.36 995)">PE</text><path d="M0 0 702.415 554.633" stroke="#928104" stroke-width="6.875" stroke-dasharray="27.5 20.625 6.875 20.625" fill="none" fill-rule="evenodd" transform="matrix(1 0 0 -1 2236.5 1463.13)"/><path d="M0 0 718.511 111.272" stroke="#928104" stroke-width="6.875" stroke-dasharray="27.5 20.625 6.875 20.625" fill="none" fill-rule="evenodd" transform="matrix(1 0 0 -1 2236.5 1622.77)"/><path d="M1957.88 520 1957.88 678.492 1944.13 678.492 1944.13 520ZM1971.63 671.617 1951 712.867 1930.38 671.617Z"/><text font-family="Calibri,Calibri_MSFontService,sans-serif" font-weight="400" font-size="64" transform="matrix(1 0 0 1 1796.05 487)">FROM DMA</text><text font-family="Calibri,Calibri_MSFontService,sans-serif" font-weight="700" font-size="46" transform="matrix(1 0 0 1 1980.09 643)">AXI4</text><rect x="994" y="388" width="2749" height="1899" stroke="#A6A6A6" stroke-width="10.3125" stroke-linejoin="round" stroke-miterlimit="10" stroke-dasharray="41.25 30.9375" fill="none"/><rect x="1456" y="-175" width="406" height="366" stroke="#000000" stroke-width="10.3125" stroke-miterlimit="8" fill="#FFD966"/><text font-family="Calibri,Calibri_MSFontService,sans-serif" font-weight="700" font-size="73" transform="matrix(1 0 0 1 1542.24 -11)">SAURIA</text><text font-family="Calibri,Calibri_MSFontService,sans-serif" font-weight="700" font-size="73" transform="matrix(1 0 0 1 1588.08 77)">Core</text><rect x="1451" y="-18.9999" width="54" height="55" fill="#262626"/><text fill="#FFFFFF" font-family="Calibri,Calibri_MSFontService,sans-serif" font-weight="700" font-size="50" transform="matrix(1 0 0 1 1466.15 26)">S</text><rect x="1813" y="-18.9999" width="54" height="55" fill="#262626"/><text fill="#FFFFFF" font-family="Calibri,Calibri_MSFontService,sans-serif" font-weight="700" font-size="50" transform="matrix(1 0 0 1 1828.29 26)">S</text><rect x="2205" y="-428" width="406" height="219" stroke="#000000" stroke-width="10.3125" stroke-linejoin="round" stroke-miterlimit="10" fill="#A1F6EC"/><text font-family="Arial,Arial_MSFontService,sans-serif" font-weight="700" font-size="55" transform="matrix(1 0 0 1 2345.69 -298)">DMA</text><rect x="2202" y="-344" width="54" height="55" fill="#262626"/><text fill="#FFFFFF" font-family="Calibri,Calibri_MSFontService,sans-serif" font-weight="700" font-size="50" transform="matrix(1 0 0 1 2206.91 -300)">M</text><rect x="2381" y="-432" width="54" height="55" fill="#262626"/><text fill="#FFFFFF" font-family="Calibri,Calibri_MSFontService,sans-serif" font-weight="700" font-size="50" transform="matrix(1 0 0 1 2396.11 -387)">S</text><rect x="2563" y="-345" width="54" height="55" fill="#262626"/><text fill="#FFFFFF" font-family="Calibri,Calibri_MSFontService,sans-serif" font-weight="700" font-size="50" transform="matrix(1 0 0 1 2567.84 -301)">M</text><rect x="1017" y="-655" width="406" height="279" stroke="#000000" stroke-width="10.3125" stroke-miterlimit="8" fill="#FFCCFF"/><text font-family="Calibri,Calibri_MSFontService,sans-serif" font-weight="700" font-size="55" transform="matrix(1 0 0 1 1115.11 -530)">Dataflow</text><text font-family="Calibri,Calibri_MSFontService,sans-serif" font-weight="700" font-size="55" transform="matrix(1 0 0 1 1104.22 -464)">Controller</text><rect x="1196" y="-660" width="48.0001" height="52.9999" fill="#262626"/><text fill="#FFFFFF" font-family="Calibri,Calibri_MSFontService,sans-serif" font-weight="700" font-size="50" transform="matrix(1 0 0 1 1207.92 -617)">S</text><rect x="1192" y="-425" width="52.9999" height="55" fill="#262626"/><text fill="#FFFFFF" font-family="Calibri,Calibri_MSFontService,sans-serif" font-weight="700" font-size="50" transform="matrix(1 0 0 1 1196.48 -381)">M</text><rect x="1380" y="-536" width="47.9998" height="52.9999" fill="#262626"/><text fill="#FFFFFF" font-family="Calibri,Calibri_MSFontService,sans-serif" font-weight="700" font-size="50" transform="matrix(1 0 0 1 1382.06 -493)">M</text><rect x="1208" y="-41.9999" width="148" height="102" stroke="#000000" stroke-width="10.3125" stroke-miterlimit="8" fill="#FFF2CC"/><text font-family="Calibri,Calibri_MSFontService,sans-serif" font-weight="700" font-size="55" transform="matrix(1 0 0 1 1235.02 27)">CDC</text><rect x="1961" y="-41.9999" width="148" height="102" stroke="#000000" stroke-width="10.3125" stroke-miterlimit="8" fill="#FFF2CC"/><text font-family="Calibri,Calibri_MSFontService,sans-serif" font-weight="700" font-size="55" transform="matrix(1 0 0 1 1988.27 27)">CDC</text><rect x="1187" y="-205" width="63.9999" height="25.9998" fill="#7F7F7F"/><rect x="1316" y="-204" width="65" height="25.9998" fill="#7F7F7F"/><path d="M1418-201 1355.89-98 1211.11-98 1149-201Z" stroke="#000000" stroke-width="10.3125" stroke-miterlimit="8" fill="#FFFFFF" fill-rule="evenodd"/><text font-family="Calibri,Calibri_MSFontService,sans-serif" font-weight="700" font-size="55" transform="matrix(1 0 0 1 1224.87 -132)">MUX</text><rect x="1940" y="-204" width="63.9999" height="24.9997" fill="#7F7F7F"/><rect x="2069" y="-204" width="64" height="25.9998" fill="#7F7F7F"/><path d="M2170-200 2108.49-98 1963.51-98 1902-200Z" stroke="#000000" stroke-width="10.3125" stroke-miterlimit="8" fill="#FFFFFF" fill-rule="evenodd"/><text font-family="Calibri,Calibri_MSFontService,sans-serif" font-weight="700" font-size="55" transform="matrix(1 0 0 1 1977.43 -131)">MUX</text><rect x="2312" y="-621" width="64" height="26.0001" fill="#7F7F7F"/><rect x="2441" y="-620" width="64" height="26.0001" fill="#7F7F7F"/><path d="M2542-617 2479.89-514 2336.11-514 2274-617Z" stroke="#000000" stroke-width="10.3125" stroke-miterlimit="8" fill="#FFFFFF" fill-rule="evenodd"/><text font-family="Calibri,Calibri_MSFontService,sans-serif" font-weight="700" font-size="55" transform="matrix(1 0 0 1 2349.46 -548)">MUX</text><rect x="1457" y="-823" width="65" height="25.0001" fill="#7F7F7F"/><rect x="1558" y="-823" width="64.0002" height="25.0001" fill="#7F7F7F"/><rect x="1658" y="-825" width="63.9999" height="26.0001" fill="#7F7F7F"/><rect x="1760" y="-825" width="65" height="26.0001" fill="#7F7F7F"/><path d="M1412-802 1473.51-904 1815.49-904 1877-802Z" stroke="#000000" stroke-width="10.3125" stroke-miterlimit="8" fill="#FFFFFF" fill-rule="evenodd"/><text font-family="Calibri,Calibri_MSFontService,sans-serif" font-weight="700" font-size="64" transform="matrix(1 0 0 1 1541.46 -827)">DEMUX</text><path d="M1591.69-797.5 1591.69-294.493 1348.5-294.493 1350.22-296.212 1350.22-226.902 1346.78-226.902 1346.78-297.931 1589.97-297.931 1588.25-296.212 1588.25-797.5ZM1362.25-231.485 1348.5-203.985 1334.75-231.485Z"/><rect x="1865" y="-426" width="213" height="43" stroke="#000000" stroke-width="10.3125" stroke-miterlimit="8" fill="#D9D9D9"/><text font-family="Calibri,Calibri_MSFontService,sans-serif" font-weight="700" font-size="41" transform="matrix(1 0 0 1 1877.78 -390)">LITE 2 FULL</text><rect x="1865" y="-384" width="213" height="43" stroke="#000000" stroke-width="10.3125" stroke-miterlimit="8" fill="#D9D9D9"/><text font-family="Calibri,Calibri_MSFontService,sans-serif" font-weight="700" font-size="41" transform="matrix(1 0 0 1 1912.44 -348)">UPSIZE</text><path d="M0-1.71875 129.805-1.71875 129.805 281.479 128.086 279.76 350.132 279.76 350.132 283.197 126.367 283.197 126.367 0 128.086 1.71875 0 1.71875ZM345.549 267.729 373.049 281.479 345.549 295.229Z" transform="matrix(1.83697e-16 1 1 -1.83697e-16 1690.5 -798.5)"/><path d="M0-1.71875 62.0404-1.71875 62.0404 680.526 60.3216 678.808 156.165 678.808 156.165 682.245 58.6029 682.245 58.6029 0 60.3216 1.71875 0 1.71875ZM151.582 666.776 179.082 680.526 151.582 694.276Z" transform="matrix(1.83697e-16 1 1 -1.83697e-16 1793.5 -798.5)"/><path d="M1491.83-797.5 1491.83-727.116 1220.5-727.116 1222.22-728.834 1222.22-683.085 1218.78-683.085 1218.78-730.553 1490.11-730.553 1488.39-728.834 1488.39-797.5ZM1234.25-687.669 1220.5-660.169 1206.75-687.669Z"/><path d="M0-1.71875 787.203-1.71875 787.203 175.791 785.484 174.072 915.632 174.072 913.913 175.791 913.913 134.541 917.351 134.541 917.351 177.51 783.765 177.51 783.765 0 785.484 1.71875 0 1.71875ZM901.882 139.124 915.632 111.624 929.382 139.124Z" transform="matrix(1 0 0 -1 1428.5 -508.876)"/><path d="M0-5.15625 106.208-5.15625 106.208 87.1247 95.8958 87.1247 95.8958 0 101.052 5.15625 0 5.15625ZM116.521 81.9684 101.052 112.906 85.5833 81.9684Z" transform="matrix(-1 1.22465e-16 1.22465e-16 1 2202.05 -317)"/><path d="M2410.22-513.5 2410.22-453.9 2406.78-453.9 2406.78-513.5ZM2422.25-458.483 2408.5-430.983 2394.75-458.483Z"/><path d="M1.98105e-05-5.15625 68.1511-5.15599 68.1511 5.15651-1.98105e-05 5.15625ZM62.9949-15.4685 93.9324 0.000360892 62.9948 15.469Z" transform="matrix(-1 0 0 1 1960.93 8.99993)"/><path d="M1356.5 7.78138 1429.34 7.78166 1429.34 11.2192 1356.5 11.2189ZM1424.76-4.24961 1452.26 9.50049 1424.76 23.2504Z"/><path d="M2617-322.156 2851.75-322.156 2851.75-311.843 2617-311.844ZM2846.59-332.468 2877.53-317 2846.59-301.531Z"/><path d="M1977.16-341.002 1977.2-230.271 1966.89-230.266 1966.84-340.998ZM1987.51-235.431 1972.06-204.487 1956.58-235.418Z"/><path d="M2040.16-98.0219 2040.28-67.9812 2029.97-67.9373 2029.84-97.978ZM2050.57-73.1812 2035.24-42.1782 2019.64-73.0496Z"/><path d="M1.7187-0.0135633 1.98175 33.3199-1.45564 33.347-1.7187 0.0135633ZM13.9765 28.6418 0.443898 56.2494-13.5227 28.8588Z" transform="matrix(-1 0 0 1 1282.94 -98.5002)"/><path d="M1646.22-1081.5 1646.22-930 1642.78-930 1642.78-1081.5ZM1658.25-934.583 1644.5-907.083 1630.75-934.583Z"/><path d="M1221.22-369.5 1221.22-223.983 1217.78-223.983 1217.78-369.5ZM1233.25-228.566 1219.5-201.066 1205.75-228.566Z"/><text font-family="Calibri,Calibri_MSFontService,sans-serif" font-weight="700" font-size="46" transform="matrix(1 0 0 1 1667.68 -989)">AXI4 </text><text font-family="Calibri,Calibri_MSFontService,sans-serif" font-weight="700" font-size="46" transform="matrix(1 0 0 1 1766.22 -989)">Lite</text><text font-family="Calibri,Calibri_MSFontService,sans-serif" font-weight="700" font-size="46" transform="matrix(1 0 0 1 2634.51 -243)">AXI4</text><text font-family="Calibri,Calibri_MSFontService,sans-serif" font-weight="400" font-size="64" transform="matrix(1 0 0 1 1506.1 -1105)">FROM CPU</text><text font-family="Calibri,Calibri_MSFontService,sans-serif" font-weight="400" font-size="64" transform="matrix(1 0 0 1 2701.57 -355)">TO MEMORY</text><path d="M0 0 462.169 192.846" stroke="#A6A6A6" stroke-width="6.875" stroke-dasharray="27.5 20.625 6.875 20.625" fill="none" fill-rule="evenodd" transform="matrix(1 0 0 -1 994.5 384.346)"/><path d="M3743.59 380.263 1865.5 193.5" stroke="#A6A6A6" stroke-width="6.875" stroke-dasharray="27.5 20.625 6.875 20.625" fill="none" fill-rule="evenodd"/><text font-family="Calibri,Calibri_MSFontService,sans-serif" font-weight="700" font-size="64" text-decoration="underline" transform="matrix(1 0 0 1 3334.72 2233)">SAURIA Core</text><text font-family="Calibri,Calibri_MSFontService,sans-serif" font-weight="700" font-size="64" text-decoration="underline" transform="matrix(1 0 0 1 2222.77 25)">SAURIA Subsystem</text></g></svg>